<?xml version="1.0" standalone="no"?>
<!DOCTYPE svg PUBLIC "-//W3C//DTD SVG 1.1//EN" "http://www.w3.org/Graphics/SVG/1.1/DTD/svg11.dtd" >
<!--
2013-9-30: Created.
-->
<svg>
<metadata>
Created by iconfont
</metadata>
<defs>

<font id="iconfont" horiz-adv-x="1024" >
  <font-face
    font-family="iconfont"
    font-weight="500"
    font-stretch="normal"
    units-per-em="1024"
    ascent="896"
    descent="-128"
  />
    <missing-glyph />
    
    <glyph glyph-name="PDF" unicode="&#59371;" d="M1001.3354666666665 627.0033269841269l-228.0236698412698 244.1129312169312c-8.322031746031746 8.876833862433863-20.527678306878304 14.424855026455026-32.73332486772486 14.424855026455026h-571.4461798941799c-26.630501587301588 0-47.712982010582-21.637282539682538-47.712982010582-47.712982010582v-307.3603724867725c0-18.30846984126984 14.97965714285714-33.28812698412698 33.28812698412698-33.28812698412698s33.28812698412698 14.97965714285714 33.28812698412698 33.28812698412698V794.5535661375661c0 13.315250793650794 10.541240211640211 23.856491005291 23.856491005291 23.856491005291h492.6642793650794v-209.16039788359788c0-27.74010582010582 22.74688677248677-50.486992592592586 50.486992592592586-50.486992592592586h191.96153227513227v-586.9806391534391c0-13.315250793650794-10.541240211640211-23.856491005291-23.856491005291-23.856491005291H154.70743703703704c-18.30846984126984 0-33.28812698412698-14.97965714285714-33.28812698412698-33.28812698412698s14.97965714285714-33.28812698412698 33.28812698412698-33.28812698412698h811.6754962962963c26.630501587301588 0 47.712982010582 21.637282539682538 47.712982010582 47.712982010582l-0.5548021164021164 666.8721439153439c-0.5548021164021164 11.650844444444443-4.438416931216931 22.74688677248677-12.205646560846558 31.068918518518515zM422.1220571428571 309.6565164021165c-8.322031746031746 3.3288126984126984-21.637282539682538 4.993219047619047-39.94575238095238 4.993219047619047h-49.377388359788355v-178.64628148148148h49.93219047619048c15.534459259259258 0 27.74010582010582 1.6644063492063492 36.062137566137565 4.438416931216931 8.876833862433863 2.7740105820105816 15.534459259259258 6.657625396825397 21.082480423280423 12.205646560846558 7.212427513227513 7.212427513227513 13.315250793650794 17.198865608465606 17.198865608465606 29.404512169312166 3.8836148148148144 12.205646560846558 6.102823280423279 27.185303703703703 6.102823280423279 44.93897142857143 0 24.411293121693117-3.8836148148148144 43.274565079365075-12.205646560846558 56.589815873015866-7.767229629629629 12.760448677248677-17.198865608465606 21.637282539682538-28.84971005291005 26.07569947089947zM9.904084656084649 390.65762539682544v-330.1072592592592c0-24.96609523809524 20.527678306878304-45.49377354497354 45.49377354497354-45.49377354497354h670.2009566137566c24.96609523809524 0 45.49377354497354 20.527678306878304 45.49377354497354 45.49377354497354V390.65762539682544c0 24.96609523809524-20.527678306878304 45.49377354497354-45.49377354497354 45.49377354497354H55.397858201058284c-24.96609523809524 0-45.49377354497354-20.527678306878304-45.49377354497354-45.49377354497354z m233.571691005291-166.44063492063492c-12.760448677248677-13.87005291005291-35.50733544973545-20.527678306878304-68.79546243386243-20.527678306878304H115.31648677248677v-94.8711619047619h-31.068918518518515v233.571691005291h88.21353650793651c15.534459259259258 0 27.185303703703703-0.5548021164021164 35.50733544973545-2.2192084656084656 11.650844444444443-1.6644063492063492 21.082480423280423-5.548021164021163 28.84971005291005-11.096042328042326 7.767229629629629-5.548021164021163 13.87005291005291-12.760448677248677 18.86327195767196-22.74688677248677 4.993219047619047-9.43163597883598 7.212427513227513-20.527678306878304 7.212427513227513-31.623720634920634 0-19.97287619047619-6.657625396825397-36.61693968253968-19.418074074074074-50.486992592592586z m245.77733756613753-44.93897142857143c-3.8836148148148144-13.87005291005291-9.43163597883598-24.96609523809524-16.089261375661376-33.8429291005291-6.657625396825397-8.876833862433863-13.315250793650794-16.089261375661376-21.082480423280423-21.082480423280423-7.767229629629629-4.993219047619047-17.198865608465606-8.876833862433863-27.74010582010582-11.650844444444443-11.096042328042326-2.7740105820105816-23.301688888888886-3.8836148148148144-37.72654391534392-3.8836148148148144H302.2848v233.571691005291h80.44630687830686c18.30846984126984 0 32.17852275132275-1.1096042328042328 41.61015873015873-3.3288126984126984 13.315250793650794-3.3288126984126984 24.96609523809524-8.876833862433863 34.39773121693121-16.64406349206349 12.205646560846558-10.541240211640211 21.637282539682538-23.856491005291 27.74010582010582-39.94575238095238 6.102823280423279-16.089261375661376 9.43163597883598-34.95253333333333 9.43163597883598-55.48021164021164-0.5548021164021164-18.30846984126984-2.7740105820105816-33.8429291005291-6.657625396825397-47.712982010582z m208.05079365079365 135.3717164021164h-126.49488253968254v-72.12427513227513h109.85081904761904v-27.74010582010582h-109.85081904761904v-105.96720423280422H539.7401058201059v233.571691005291h157.56380105820102v-27.74010582010582zM204.0848253968254 312.430526984127c-4.993219047619047 1.1096042328042328-14.97965714285714 2.2192084656084656-28.84971005291005 2.2192084656084656H115.31648677248677v-83.77511957671958h60.473430687830685c19.97287619047619 0 34.39773121693121 3.8836148148148144 42.71976296296296 11.096042328042326s12.760448677248677 17.753667724867725 12.760448677248677 31.623720634920634c0 9.986438095238094-2.2192084656084656 18.30846984126984-7.212427513227513 24.96609523809524-5.548021164021163 7.212427513227513-12.205646560846558 11.650844444444443-19.97287619047619 13.87005291005291z"  horiz-adv-x="1024" />

    
    <glyph glyph-name="mp4" unicode="&#59058;" d="M1018.538667 383.7952v-339.456H0.238933v339.456h1018.368zM259.1744 305.902933H223.914667V110.933333h29.764266v139.264h1.092267L314.5728 110.933333h25.668267l59.8016 139.264h1.092266V110.933333h29.764267v194.9696h-35.2256l-67.720533-156.194133h-0.8192l-67.9936 156.194133z m290.816 0h-80.827733V110.933333h29.764266v75.912534h50.517334c46.6944 0 70.178133 19.933867 70.178133 59.8016 0 39.594667-23.210667 59.255467-69.632 59.255466z m206.984533 0h-27.306666l-96.119467-124.5184v-28.125866h95.0272V110.933333h28.398933v42.325334h29.4912v23.7568h-29.4912v128.887466z m-28.398933-37.6832v-91.204266h-70.724267l69.905067 91.204266h0.8192z m-181.0432 12.288c14.472533 0 25.122133-2.730667 31.9488-8.192 6.826667-4.9152 10.376533-13.653333 10.376533-25.668266s-3.549867-20.753067-10.103466-26.2144c-6.826667-5.461333-17.476267-8.192-32.221867-8.192h-48.605867v68.266666h48.605867zM152.9856 827.904v-390.382933H102.058667V827.904A68.164267 68.164267 0 0 0 169.949867 895.7952h443.528533c31.197867-0.034133 61.098667-12.458667 83.182933-34.542933l185.5488-185.821867a116.5312 116.5312 0 0 0 34.5088-82.875733v-155.0336h-50.8928V592.554667c0 4.949333-0.580267 9.898667-1.706666 14.677333h-235.9296V843.1616a63.351467 63.351467 0 0 1-14.677334 1.706667H169.915733a16.964267 16.964267 0 0 1-16.964266-16.964267z m526.1312-21.230933v-148.48h148.48l-148.48 148.48z m186.709333-861.354667V-3.754667h50.8928v-50.926933a68.164267 68.164267 0 0 0-67.8912-67.8912H169.915733a68.164267 68.164267 0 0 0-67.857066 67.925333v50.858667h50.926933v-50.858667c0-9.386667 7.5776-16.9984 16.964267-16.9984h678.912a16.964267 16.964267 0 0 1 16.964266 16.964267zM326.656 726.050133l133.2224-76.936533a19.797333 19.797333 0 0 0 10.205867-17.271467 20.3776 20.3776 0 0 0-10.205867-17.5104L326.656 537.3952a20.0704 20.0704 0 0 0-30.276267 18.944V709.358933a19.524267 19.524267 0 0 0 9.898667 16.725334 20.0704 20.0704 0 0 0 20.3776 0z"  horiz-adv-x="1024" />

    
    <glyph glyph-name="wenjian" unicode="&#58915;" d="M186.181818 58.181818l325.818182 0 0-46.545455-325.818182 0 0 46.545455ZM837.818182 58.181818 837.818182 11.636364 930.909091 11.636364 930.909091 896 232.727273 896 232.727273 802.909091 279.272727 802.909091 279.272727 849.454545 884.363636 849.454545 884.363636 58.181818ZM186.181818 197.818182l512 0 0-46.545455-512 0 0 46.545455ZM93.090909 746.589091l0-864.814545C93.090909-123.624727 97.373091-128 102.679273-128l678.958545 0C786.990545-128 791.272727-123.671273 791.272727-118.225455L791.272727 746.589091C791.272727 751.988364 786.990545 756.363636 781.684364 756.363636L102.679273 756.363636C97.373091 756.363636 93.090909 752.034909 93.090909 746.589091zM139.636364 709.818182l605.090909 0 0-791.272727L139.636364-81.454545 139.636364 709.818182zM186.181818 616.727273l512 0 0-46.545455-512 0 0 46.545455ZM186.181818 477.090909l512 0 0-46.545455-512 0 0 46.545455ZM186.181818 337.454545l512 0 0-46.545455-512 0 0 46.545455Z"  horiz-adv-x="1024" />

    
    <glyph glyph-name="xlsx" unicode="&#58882;" d="M613.456 741.472v-55.856h135.264v-100.544h-135.264v-22.336h135.264v-100.544h-135.264v-22.336h135.264v-111.712h-135.264v-22.336h135.264v-100.544h-135.264v-22.336h135.264v-100.544h-135.264v-55.856h394.544v714.944h-394.544zM929.088 82.384h-157.824v100.544h157.824v-100.544zM929.088 205.264h-157.824v100.544h157.824v-100.544zM929.088 328.144h-157.824v111.712h157.824v-111.712zM929.088 462.192h-157.824v100.544h157.824v-100.544zM929.088 585.088h-157.824v100.544h157.824v-100.544zM16 15.344l574.912-100.544v938.384l-574.912-100.544v-737.296zM153.616 549.504h102.176l53.136-103.104 51.696 103.104h101.152l-93.44-162.304 102.24-172.816h-104.224l-59.28 107.664-59.28-107.664h-103.584l103.536 174.656-94.128 160.464z"  horiz-adv-x="1024" />

    
    <glyph glyph-name="exe" unicode="&#58976;" d="M960.068267 447.931733v160.085334L671.982933 896H95.744a30.788267 30.788267 0 0 1-21.947733-9.147733 30.9248 30.9248 0 0 1-9.147734-21.879467v-417.041067H0V0h64.068267v-96.938667a31.163733 31.163733 0 0 1 31.061333-31.061333h833.194667a31.232 31.232 0 0 1 31.061333 31.095467V0H1024V447.931733h-63.931733z m-63.931734-512H128V0h768l0.136533-64.068267z m-526.097066 312.661334v-29.525334H231.185067v-85.333333h154.043733v-28.9792H198.144v250.2656h181.384533v-29.661867H231.185067v-77.550933l138.8544 0.750933z m46.523733 106.359466h39.6288l46.08-64.068266c9.4208-13.312 16.145067-23.620267 20.104533-30.993067 6.144 9.898667 12.8 19.387733 19.899734 28.5696l50.414933 66.56h36.181333l-88.200533-118.237867 95.4368-132.027733h-41.642667l-63.0784 89.4976c-3.754667 5.5296-7.406933 11.127467-10.990933 16.725333-3.822933-6.314667-7.7824-12.5952-11.946667-18.7392L445.44 104.789333h-39.867733l96.938666 130.833067-85.947733 119.364267z m421.2736-106.3936v-29.4912h-139.6736v-85.333333h155.204267v-28.9792H665.6v250.2656h181.384533v-29.661867h-148.821333v-77.550933l139.6736 0.750933z m58.299733 199.3728H128V831.931733h544.017067v-223.914666h223.982933l0.136533-160.085334z"  horiz-adv-x="1024" />

    
    <glyph glyph-name="zip" unicode="&#58881;" d="M905.179865 717.150272c-6.609955 6.158958-13.992905 13.019912-21.969851 20.407862-22.792846 21.112857-45.78069 42.227714-67.517542 61.94758-2.454983 2.225985-2.454983 2.225985-4.911967 4.44997-29.001803 26.256822-53.194639 47.660677-71.071518 62.743575-10.459929 8.82494-18.692873 15.432895-24.742833 19.791865-4.015973 2.89298-7.279951 4.976966-10.499928 6.502956-4.052973 1.921987-7.832947 3.092979-13.163911 2.99298C677.041411 895.720062 665.595489 884.22414 665.595489 869.810237V639.546798H895.993928l-25.599827 25.584827v-767.546798L895.993928-76.830347H230.379439c-42.476712 0-76.78048 34.205768-76.78048 76.622481V869.810237L127.999133 844.225411h460.796877c14.137904 0 25.599827 11.454922 25.599826 25.584826S602.933914 895.395064 588.79601 895.395064H102.399306v-895.60293C102.399306-70.910387 159.651918-128 230.379439-128H921.593754V690.716451H691.195316l25.599826-25.584826V869.810237c0-13.629908-11.051925-24.730832-24.531834-24.98383-4.561969-0.085999-7.197951 0.730995-9.739934 1.935987-0.268998 0.126999 0.816994-0.565996 2.500983-1.779988 4.749968-3.421977 12.116918-9.333937 21.656854-17.382882 17.322883-14.614901 41.129721-35.678758 69.727527-61.567583a6296.03733 6296.03733 0 0 0 4.870967-4.41497c21.591854-19.586867 44.453699-40.586725 67.128545-61.589583a9988.951301 9988.951301 0 0 0 21.855852-20.302862c3.939973-3.670975 6.749954-6.295957 8.229944-7.680948 10.31893-9.659935 26.51882-9.129938 36.183755 1.182992s9.134938 26.50382-1.183992 36.162755a5497.69274 5497.69274 0 0 1-8.313944 7.759947zM102.399306 434.866185H0v-434.943052h1023.99306V434.867185H153.598959v0.597996h-51.199653v-0.597996zM281.998089 117.198338h155.598945v-40.399726H220.798504v32.799778l150.598979 217.598525H221.798497V367.996638h210.99857v-31.999783L281.998089 117.198338z m252.398289-40.399726H483.99672V367.996638h50.399658v-291.198026zM647.195614 184.997879v-108.199267h-50.599657V367.996638H707.995202c32.53278 0 58.366604-8.466943 77.499474-25.399827 19.13287-16.932885 28.699805-39.332733 28.699806-67.199545 0-28.532807-9.366937-50.732656-28.09981-66.599549-18.732873-15.866892-44.965695-23.799839-78.699466-23.799838h-60.199592z m0 40.599725H707.995202c17.999878 0 31.732785 4.232971 41.19972 12.699913 9.466936 8.466943 14.199904 20.69986 14.199904 36.699752 0 15.732893-4.799967 28.299808-14.399902 37.699744-9.599935 9.399936-22.799845 14.232904-39.599732 14.499902h-62.199578v-101.599311z"  horiz-adv-x="1024" />

    
    <glyph glyph-name="word" unicode="&#58988;" d="M577.824-98.752c-29.248 7.328-51.2 7.328-73.152 14.624l-109.728 21.952c-43.872 7.328-87.776 14.624-124.352 21.952-51.2 7.328-109.728 21.952-160.928 29.248-29.248 7.328-65.824 14.624-95.072 14.624-14.624 0-14.624 0-14.624 7.328v7.328V749.728c0 14.624 0 14.624 14.624 21.952 43.872 0 87.776 14.624 131.648 21.952l131.648 21.952 131.648 21.952c36.576 7.328 73.152 14.624 102.4 21.952 14.624 0 36.576 7.328 51.2 7.328h14.624v-80.448c0-14.624 0-14.624 14.624-14.624H987.36c29.248-7.328 36.576-14.624 36.576-36.576v-702.176c0-21.952-14.624-36.576-36.576-36.576H607.008c-21.952 0-21.952 0-21.952-21.952v-58.528c-7.328-7.328-7.328-7.328-7.328-14.624zM994.752 384V720.448c0 21.952 0 21.952-21.952 21.952H585.152c-7.328 0-14.624 0-14.624-14.624v-43.872c0-14.624 0-14.624 14.624-14.624h292.576c29.248 0 21.952 7.328 21.952-21.952 0-7.328 0-14.624-14.624-14.624h-307.2c-14.624 0-14.624 0-14.624-14.624v-36.576c0-14.624 0-14.624 14.624-14.624h299.872c21.952 0 21.952 0 21.952-21.952 0-14.624 0-14.624-14.624-14.624H570.56c-7.328 0-7.328 0-7.328-7.328v-43.872c14.624-21.952 14.624-21.952 36.576-21.952h299.872c21.952 0 21.952 0 21.952-21.952 0-14.624 0-14.624-14.624-14.624h-307.2c-7.328 0-14.624 0-14.624-14.624v-36.576c0-14.624 0-14.624 14.624-14.624h299.872c21.952 0 21.952 0 21.952-21.952 0-14.624 0-14.624-14.624-14.624h-219.424c-36.576-7.328-65.824-7.328-95.072-7.328-7.328 0-14.624 0-14.624-7.328v-36.576c0-14.624 0-14.624 14.624-14.624h292.576c29.248 0 21.952 7.328 21.952-21.952 0-7.328 0-14.624-14.624-14.624H577.92c-14.624 0-14.624 0-14.624-14.624v-36.576c0-14.624 0-14.624 14.624-14.624h292.576c29.248 0 21.952 0 21.952-21.952 0-7.328 0-14.624-14.624-14.624h-307.2c-14.624 0-14.624 0-14.624-14.624v-43.872c0-14.624 0-14.624 14.624-14.624h380.352c14.624 0 14.624 0 14.624 14.624 29.248 102.4 29.248 219.424 29.248 329.152zM263.328 427.872c7.328-7.328 7.328-14.624 7.328-21.952 14.624-58.528 21.952-109.728 36.576-168.224 0-7.328 7.328-7.328 7.328-7.328h51.2c7.328 0 7.328 7.328 14.624 7.328 7.328 36.576 14.624 73.152 29.248 117.024 7.328 29.248 14.624 65.824 21.952 102.4 7.328 29.248 14.624 51.2 21.952 80.448 0 14.624 0 14.624-14.624 14.624h-43.872c-7.328 0-7.328-7.328-7.328-7.328 0-7.328-7.328-21.952-7.328-29.248a3506.048 3506.048 0 0 0-21.952-117.024c0-21.952-7.328-36.576-7.328-58.528l-7.328 7.328c-7.328 21.952-7.328 51.2-14.624 73.152L307.2 530.272a15.712 15.712 0 0 1-14.624 14.624H248.704c-7.328-7.328-14.624-7.328-14.624-14.624-7.328-36.576-14.624-80.448-21.952-117.024-7.328-21.952-14.624-43.872-14.624-73.152v7.328c0 14.624-7.328 36.576-7.328 51.2-14.624 43.872-21.952 87.776-29.248 124.352a15.712 15.712 0 0 1-14.624 14.624H109.728c-7.328-7.328-7.328-7.328-7.328-21.952l21.952-109.728c7.328-51.2 21.952-102.4 29.248-153.6 7.328-7.328 7.328-14.624 14.624-14.624h43.872c7.328 0 14.624 0 14.624 7.328 7.328 29.248 14.624 58.528 14.624 80.448 7.328 36.576 14.624 65.824 21.952 102.4z"  horiz-adv-x="1024" />

    
    <glyph glyph-name="wav" unicode="&#59321;" d="M579 755l-153-47c-18-5-34-25-34-43v-161s-11 7-36 4c-36-5-66-33-66-62s29-47 66-42 63 32 63 61V603c0 13 16 18 16 18l135 42s15 5 15-9v-110s-14 8-38 5c-36-4-66-32-66-61s29-48 66-43 66 32 66 61V731c-1 19-16 29-34 24z m-18-651h-36l-52 152h35l33-107a74 74 0 0 0 3-15h1a78 78 0 0 0 3 15l33 106h34z m-114 0l-11 35h-55l-11-35h-35l55 151h38l54-151z m-184 0l-26 99a76 76 0 0 0-2 17 121 121 0 0 0-3-17l-26-99h-38l-40 152h35l22-102a111 111 0 0 0 2-17h1a87 87 0 0 0 3 17l28 102h34l26-103a100 100 0 0 0 2-16h1a100 100 0 0 0 2 17l22 103h33l-40-153h-36z m413 193H64a28 28 0 0 1-27-27v-181a28 28 0 0 1 27-27h612a28 28 0 0 1 27 27V270a28 28 0 0 1-27 27z m-267-67h-1a61 61 0 0 0-3-13l-17-53h40l-17 52a58 58 0 0 0-2 14z m320 432V767c0 4 2 5 5 2l126-125c3-3 2-5-2-5H752a23 23 0 0 0-23 23z m34 177l-2 2-51 50a20 20 0 0 1-12 5H282c-58 0-105-47-105-105v-466h83V791a23 23 0 0 0 23 23h364v-152c0-58 47-105 105-105h153v-580a23 23 0 0 0-23-23H282a23 23 0 0 0-23 23v58h-82v-58c0-58 47-105 105-105h600c58 0 105 47 105 105V608a19 19 0 0 1-5 12l-50 50-2 2z"  horiz-adv-x="1024" />

    
    <glyph glyph-name="png" unicode="&#59483;" d="M307.2 242.215385c7.876923 7.876923 11.815385 23.630769 11.815385 39.384615s-3.938462 31.507692-11.815385 39.384615c-7.876923 7.876923-19.692308 11.815385-35.446154 11.815385H204.8v-102.4h63.015385c15.753846 0 31.507692 3.938462 39.384615 11.815385zM909.784615 454.892308V699.076923l-196.923077 196.923077h-39.384615v-236.307692h196.923077v-204.8h-708.923077V856.615385h433.230769V896h-472.615384v-441.107692H0v-472.615385h129.969231c19.692308-63.015385 78.769231-110.276923 149.661538-110.276923h630.153846v110.276923H1024v472.615385h-114.215385z m-196.923077 244.184615V840.861538L854.646154 699.076923h-141.784616z m-51.2-366.276923c23.630769 27.569231 51.2 43.323077 86.646154 43.323077 27.569231 0 47.261538-7.876923 66.953846-27.569231 19.692308-19.692308 31.507692-39.384615 31.507693-70.892308h-31.507693c-3.938462 19.692308-11.815385 31.507692-23.630769 43.323077s-27.569231 15.753846-47.261538 15.753847c-23.630769 0-43.323077-11.815385-59.076923-31.507693-15.753846-23.630769-23.630769-51.2-23.63077-90.584615 0-35.446154 7.876923-66.953846 23.63077-86.646154s35.446154-31.507692 59.076923-31.507692 43.323077 7.876923 59.076923 27.56923c3.938462 7.876923 7.876923 15.753846 11.815384 27.569231 3.938462 11.815385 3.938462 23.630769 3.938462 35.446154v3.938462H748.307692V226.461538h106.338462v-157.538461h-19.692308l-7.876923 31.507692c-19.692308-27.569231-47.261538-43.323077-78.769231-43.323077-35.446154 0-63.015385 15.753846-82.707692 43.323077-19.692308 27.569231-31.507692 66.953846-31.507692 110.276923-3.938462 55.138462 7.876923 94.523077 27.56923 122.092308z m-267.815384 35.446154h39.384615l122.092308-244.184616v244.184616h31.507692V68.923077H551.384615l-126.030769 240.246154V68.923077H393.846154v299.323077z m-224.492308 0H275.692308c23.630769 0 39.384615-7.876923 55.138461-23.630769 15.753846-11.815385 23.630769-31.507692 23.630769-59.076923s-7.876923-51.2-19.692307-66.953847c-11.815385-15.753846-31.507692-23.630769-55.138462-23.630769H204.8V68.923077h-35.446154v299.323077zM870.4-88.615385h-590.769231c-47.261538 0-90.584615 31.507692-110.276923 70.892308h701.046154V-88.615385z"  horiz-adv-x="1024" />

    
    <glyph glyph-name="JPG" unicode="&#59018;" d="M495.3 282.2c-4.3 3.7-11.5 5.6-21.5 5.6h-13.4v-47.4h8.1c11.5 0 20.1 2.2 25.4 6.4 5 4 7.5 9.8 7.5 17.8 0 8.3-2 14-6.1 17.6zM940.2 363.2H896V533.3c0 2.8-0.3 5.5-0.8 8.1 0.3 9.9-3 19.8-9.7 27.5L671.2 815.8c-3.1 3.6-6.7 6.5-10.7 8.7-6.6 4.8-14.7 7.7-23.5 7.7H249.3c-66.2 0-120-53.8-120-120v-349H83.8c-11 0-20-9-20-20v-230.4c0-11 9-20 20-20h45.5v-37c0-66.2 53.8-120 120-120H776c66.2 0 120 53.8 120 120v37h44.2c11 0 20 9 20 20V343.2c0 11-9 20-20 20z m-259.8 320l87.1-100.4-87.7 0.1 0.6 100.3z m-471.1 29c0 22.1 17.9 40 40 40h351.4l-1.2-209c-0.1-10.6 4.1-20.9 11.6-28.4s17.7-11.8 28.3-11.8l176.5-0.2v-139.5H209.3V712.2z m429.6-529.6c7.7-10 18.8-14.8 33.9-14.8 6.9 0 13.9 0.6 21 1.8v30.9h-37.5v46.3h89.9v-112.5l-3.9-1.3c-13-4.2-25.4-7.2-36.9-9-11.5-1.7-23.3-2.6-35.3-2.6-31.4 0-55.9 9.5-72.7 28.2-16.6 18.5-25.1 45.3-25.1 79.4 0 33.4 9.8 59.9 29.1 78.8s46.2 28.4 80 28.4c21 0 41.5-4.3 61-12.7l5.1-2.2-18.4-44.4-5.4 2.7c-13.6 6.8-27.9 10.2-42.6 10.2-16.6 0-29.5-5.4-39.4-16.4-9.9-11.1-14.9-26.3-14.9-45.4 0.1-19.7 4.2-35.1 12.1-45.4z m-83.8 83.6c0-23-7.4-40.9-22-53.2-14.3-12.1-34.7-18.3-60.5-18.3h-12.3v-70.4H407V333.6h68.9c25.3 0 44.9-5.7 58.4-16.8 13.8-11.4 20.8-28.5 20.8-50.6z m-190.7 67.6V184c0-20-4.9-35.8-14.6-46.9-10.1-11.6-24.8-17.4-43.6-17.4-8.1 0-15.4 0.9-21.6 2.7L256 128v49.2l34.4-6.8c4.5-1.1 8.5-1.7 12-1.7 2 0 4.6 0.3 5.4 1.5 0.7 1.1 2.4 4.5 2.4 13.6v150h54.2z m451.6-278c0-22.1-17.9-40-40-40H249.3c-22.1 0-40 17.9-40 40v37H816v-37z"  horiz-adv-x="1024" />

    
    <glyph glyph-name="apk" unicode="&#58883;" d="M395.946667-50.517333H148.821333V820.906667h727.381334v-671.402667h73.386666V820.906667C949.248 861.184 916.48 893.952 876.202667 893.952H148.821333C108.885333 893.952 75.776 861.184 75.776 820.906667v-871.424c0-39.936 32.768-73.045333 73.045333-73.045334H395.946667v73.045334zM678.570667 540.672c-16.042667 0-29.013333-13.312-29.013334-29.013333v-115.712c0-16.042667 13.312-29.013333 29.013334-29.013334 16.042667 0 29.013333 13.312 29.013333 29.013334v115.712c0 15.701333-12.970667 29.013333-29.013333 29.013333z m-347.477334 0c-16.042667 0-29.013333-13.312-29.013333-29.013333v-115.712c0-16.042667 13.312-29.013333 29.013333-29.013334 16.042667 0 29.013333 13.312 29.013334 29.013334v115.712c-0.341333 15.701333-13.312 29.013333-29.013334 29.013333z m43.349334-159.744c0-24.234667 19.456-43.349333 43.349333-43.349333v-58.026667c0-16.042667 13.312-29.013333 29.013333-29.013333 16.042667 0 29.013333 13.312 29.013334 29.013333v58.026667h58.026666v-58.026667c0-16.042667 13.312-29.013333 29.013334-29.013333 16.042667 0 29.013333 13.312 29.013333 29.013333v58.026667c24.234667 0 43.349333 19.456 43.349333 43.349333v159.061333h-261.12v-159.061333h0.341334z m259.754666 188.416C630.101333 608.938667 607.573333 643.413333 575.829333 663.893333l14.336 29.013334c3.413333 6.826667 0.682667 16.042667-6.485333 19.456-6.826667 3.413333-16.042667 0.682667-19.456-6.485334l-14.336-29.013333-3.754667 1.706667c-12.970667 4.437333-26.965333 6.485333-41.301333 6.485333s-28.330667-2.389333-41.301333-6.485333l-3.754667-1.706667-14.336 29.013333c-3.413333 6.826667-12.288 10.24-19.456 6.485334-6.826667-3.413333-10.24-12.288-6.485333-19.456L433.493333 663.893333c-31.744-20.48-54.272-55.296-58.709333-94.890666v-14.336H634.88v14.336h-0.682667z m-173.056 29.013333c-8.192 0-14.336 6.485333-14.336 14.336 0 7.850667 6.485333 14.336 14.336 14.336 8.192 0 14.336-6.485333 14.336-14.336 0-7.850667-6.144-14.336-14.336-14.336z m87.04 0c-8.192 0-14.336 6.485333-14.336 14.336 0 7.850667 6.485333 14.336 14.336 14.336 8.192 0 14.336-6.485333 14.336-14.336 0-7.850667-6.144-14.336-14.336-14.336zM721.237333 68.266667h-27.648v-59.050667h27.648c20.48-0.341333 30.378667 9.216 29.013334 29.013333 0.682667 20.821333-9.216 30.72-29.013334 30.037334zM951.637333 149.504H466.261333c-38.912 0-70.314667-33.109333-70.314666-73.045333v-200.362667h555.690666c38.912 0 70.314667 32.768 70.314667 73.045333v127.317334c0 40.277333-31.402667 73.045333-70.314667 73.045333z m-339.968-219.818667l-13.653333 36.864h-62.805333l-13.653334-36.864h-37.546666l60.416 161.109334h43.349333l61.44-161.109334h-37.546667z m116.736 56.32h-34.474666v-56.32h-35.498667v161.109334h69.973333c39.594667 0 59.050667-17.408 58.709334-52.565334 0.682667-35.498667-18.773333-52.906667-58.709334-52.224z m185.002667-56.32l-50.858667 68.266667-25.6-27.306667v-41.301333h-36.181333V90.453333h36.181333v-76.458666L904.533333 90.453333h46.762667l-65.536-67.925333 69.973333-93.184h-42.325333zM543.061333-10.24H590.506667l-23.210667 68.266667z"  horiz-adv-x="1024" />

    
    <glyph glyph-name="txt" unicode="&#58955;" d="M873.6-76H234.4c-42.4 0-76.8 34.4-76.8 76h716v-76zM780 764.8l4.8-4.8c25.6-23.2 51.2-47.2 76.8-70.4H720v128c16-13.6 36-31.2 60-52.8z m247.2-330.4h-102.4V689.6c0 7.2-3.2 13.6-8 18.4-10.4 9.6-20 18.4-30.4 28-22.4 20.8-44.8 41.6-67.2 61.6l-4.8 4.8c-23.2 21.6-47.2 42.4-71.2 62.4-8 7.2-16 13.6-24.8 20-3.2 2.4-7.2 4.8-10.4 6.4-4 2.4-8.8 3.2-12.8 3.2-14.4 0-25.6-12-25.6-26.4v-229.6h204.8v-204H157.6V843.2H592c14.4-0.8 26.4 9.6 27.2 23.2S609.6 892.8 596 893.6H106.4v-459.2H4V0h102.4c0-70.4 57.6-127.2 128-127.2h690.4V0h102.4V434.4zM270.4 322.4v-246.4h-40.8V322.4h-76v40.8h192.8v-40.8h-76zM401.6 76l84.8 151.2-76.8 136H456l53.6-97.6 53.6 97.6h47.2l-76.8-136 85.6-151.2h-47.2l-61.6 113.6-62.4-113.6h-46.4zM790.4 322.4v-246.4h-40.8V322.4h-76v40.8h192.8v-40.8h-76z"  horiz-adv-x="1027" />

    
    <glyph glyph-name="rar" unicode="&#59121;" d="M738.235733 881.800533l271.5648-273.271466v-635.016534a82.602667 82.602667 0 0 0-82.602666-82.602666H225.416533a82.602667 82.602667 0 0 0-82.193066 74.1376l-0.4096 8.465066V76.8H60.2112a41.301333 41.301333 0 0 0-41.233067 41.233067v350.890666c0 22.869333 18.432 41.301333 41.301334 41.301334h82.5344V799.197867c0 45.533867 37.000533 82.602667 82.602666 82.602666h512.8192z m-25.8048-61.986133H225.348267A20.6848 20.6848 0 0 1 204.8 799.197867V510.293333h619.246933c22.801067 0 41.301333-18.432 41.301334-41.301333v-350.890667c0-22.801067-18.432-41.233067-41.233067-41.301333H204.8v-103.2192c0-11.332267 9.216-20.548267 20.548267-20.616533h701.8496a20.616533 20.616533 0 0 1 20.616533 20.616533V582.997333l-9.762133 9.762134h-122.402134a94.890667 94.890667 0 0 0-94.4128 85.8112l-0.477866 9.079466V811.485867l-8.328534 8.328533zM200.704 416.085333H92.16v-243.712h39.936V271.701333h63.146667c13.653333 0 24.234667-2.730667 31.402666-8.874666 6.826667-5.802667 10.922667-15.36 12.288-28.672l3.072-30.037334c1.365333-13.653333 4.778667-24.234667 10.581334-31.744h43.349333a59.255467 59.255467 0 0 0-14.677333 35.84L277.162667 247.466667c-2.730667 23.893333-14.677333 37.888-35.84 42.666666v0.682667a52.974933 52.974933 0 0 1 31.061333 21.504c6.826667 9.898667 10.24 21.162667 10.24 33.792 0 23.210667-7.850667 40.96-22.869333 53.248-14.336 11.264-34.133333 16.725333-59.050667 16.725333z m264.533333 0H419.84L326.656 172.373333h42.666667l22.186666 61.098667H493.568l22.186667-61.098667h42.666666L465.237333 416.085333z m246.101334 0H602.794667v-243.712h39.936V271.701333h63.146666c13.653333 0 24.234667-2.730667 31.402667-8.874666 6.826667-5.802667 10.922667-15.36 12.288-28.672l3.072-30.037334c1.365333-13.653333 4.778667-24.234667 10.581333-31.744h43.349334a59.255467 59.255467 0 0 0-14.677334 35.84l-4.096 39.253334c-2.730667 23.893333-14.677333 37.888-35.84 42.666666v0.682667a52.974933 52.974933 0 0 1 31.061334 21.504c6.826667 9.898667 10.24 21.162667 10.24 33.792 0 23.210667-7.850667 40.96-22.869334 53.248-14.336 11.264-34.133333 16.725333-59.050666 16.725333z m-267.946667-43.008l38.229333-106.837333H403.456l38.570667 106.837333h1.365333zM195.242667 381.952c16.384 0 28.330667-2.730667 35.84-8.874667 7.509333-5.802667 11.264-15.36 11.264-28.672 0-12.288-3.754667-21.845333-11.264-28.672-8.192-6.485333-20.138667-9.898667-35.84-9.898666h-63.146667V381.952h63.146667z m510.634666 0c16.384 0 28.330667-2.730667 35.84-8.874667 7.509333-5.802667 11.264-15.36 11.264-28.672 0-12.288-3.754667-21.845333-11.264-28.672-8.192-6.485333-20.138667-9.898667-35.84-9.898666h-63.146666V381.952h63.146666z"  horiz-adv-x="1024" />

    
    <glyph glyph-name="svg" unicode="&#58884;" d="M354.401 896c-87.04 0-157.44-70.559-157.44-157.599V462.72H78.72c-21.658 0-39.363-17.7-39.363-39.363V187.04c0-21.658 17.7-39.358 39.363-39.358h118.241V29.6c0-87.04 70.4-157.599 157.44-157.599H827.04c87.04 0 157.598 70.559 157.598 157.599V580.966c0 41.749-38.988 81.93-107.52 149.28L848 759.367l-29.123 29.112C751.54 857.011 711.393 896 669.6 896H354.406z m0-78.72h287.202c28.354-7.091 27.996-42.138 27.996-76.8v-120.161c0-21.658 17.7-39.358 39.362-39.358H827.04c39.388 0 78.878 0.026 78.878-39.362v-512c0-43.32-35.553-78.879-78.878-78.879H354.406c-43.325 0-78.72 35.558-78.72 78.879V147.68h393.918c21.663 0 39.362 17.695 39.362 39.358V423.357c0 21.663-17.7 39.363-39.362 39.363H275.68V738.401c0 43.32 35.395 78.879 78.72 78.879z m-115.2-426.721c17.28 0 32.64-3.2 46.08-9.6l-7.68-18.238c-13.44 5.76-26.24 8.638-38.4 8.638-10.24 0-17.92-2.238-23.04-6.718s-7.68-10.562-7.68-18.242c0-8.96 1.92-15.678 5.76-20.158 4.48-3.84 15.038-9.6 31.678-17.28 17.28-7.04 28.482-14.402 33.602-22.082 5.76-7.04 8.638-16 8.638-26.88 0-14.72-5.12-26.558-15.36-35.518s-24.96-13.44-44.16-13.44c-18.56 0-33.28 2.56-44.16 7.68v21.12c15.36-6.4 30.08-9.6 44.16-9.6 12.8 0 22.082 2.238 27.842 6.718 6.4 4.48 9.6 11.52 9.6 21.12 0 7.68-2.242 14.08-6.722 19.2-3.2 3.2-15.038 9.282-35.518 18.242-13.44 6.4-23.04 13.44-28.8 21.12S186.4 334.24 186.4 346.4c0 13.44 4.48 24.002 13.44 31.682 9.6 8.32 22.722 12.478 39.362 12.478z m295.68 0c17.92 0 33.92-3.2 48-9.6L574.24 360.8c-14.08 7.04-27.838 10.558-41.278 10.558-18.56 0-33.28-6.078-44.16-18.238S472.48 323.36 472.48 300.32s4.802-40.638 14.402-52.798c10.24-11.52 25.6-17.28 46.08-17.28 9.6 0 19.84 1.28 30.72 3.84v51.84H528.16V306.08h57.6v-86.4c-17.92-5.76-37.438-8.638-58.558-8.638-23.68 0-42.562 7.68-56.642 23.04s-21.12 37.76-21.12 67.2c0 28.16 7.362 49.92 22.082 65.28 15.36 16 36.48 23.998 63.36 23.998z m-235.202-1.92h24.002l35.518-111.36c3.2-10.88 6.722-24.32 10.562-40.32 1.92 11.52 5.438 25.282 10.558 41.282L415.84 388.64h23.04L380.314 212.96h-22.068L299.674 388.64z"  horiz-adv-x="1024" />

    
    <glyph glyph-name="json" unicode="&#58911;" d="M512 316.416a99.328 99.328 0 0 1-18.944-62.464A102.4 102.4 0 0 1 512 192a59.392 59.392 0 0 1 51.2-24.064 60.928 60.928 0 0 1 51.2 23.04 97.28 97.28 0 0 1 17.92 61.952 104.96 104.96 0 0 1-17.92 64 58.368 58.368 0 0 1-51.2 23.552 60.928 60.928 0 0 1-51.2-24.064zM970.24 464.896h-53.76V680.448L700.416 896H215.552a107.52 107.52 0 0 1-107.52-108.032v-323.072H53.76A53.76 53.76 0 0 1 0 411.136v-323.584a53.76 53.76 0 0 1 53.76-53.76h54.272v-53.76A108.032 108.032 0 0 1 215.552-128h592.896a108.032 108.032 0 0 1 107.52 108.032v53.76h53.76a53.76 53.76 0 0 1 54.272 53.76V411.136a53.76 53.76 0 0 1-53.76 53.76zM161.792 793.6a53.76 53.76 0 0 0 53.76 55.808h431.104V742.4a108.032 108.032 0 0 1 108.032-108.032H862.72v-162.304H161.792z m527.872-537.088a138.24 138.24 0 0 0-35.328-98.304 120.32 120.32 0 0 0-92.16-37.888 119.296 119.296 0 0 0-90.624 36.352 131.072 131.072 0 0 0-34.816 94.208 139.776 139.776 0 0 0 35.84 99.328 122.368 122.368 0 0 0 94.208 38.4 115.712 115.712 0 0 0 89.6-36.864 135.68 135.68 0 0 0 33.28-95.232z m-347.648-44.544a168.448 168.448 0 0 1-47.616 25.6q-60.928 25.6-60.928 75.264a65.536 65.536 0 0 0 27.648 56.32 121.344 121.344 0 0 0 72.704 19.968 179.2 179.2 0 0 0 64-9.728v-51.2a105.984 105.984 0 0 1-60.928 17.92 62.464 62.464 0 0 1-32.768-7.68 22.528 22.528 0 0 1-12.288-19.968 25.6 25.6 0 0 1 8.192-18.432 156.672 156.672 0 0 1 41.472-23.04 135.168 135.168 0 0 0 51.2-34.816 69.12 69.12 0 0 0 14.336-44.032 66.56 66.56 0 0 0-26.624-56.832A124.928 124.928 0 0 0 307.2 120.32a161.28 161.28 0 0 0-73.216 14.336v55.296A108.544 108.544 0 0 1 307.2 163.84a60.416 60.416 0 0 1 33.792 7.68 23.552 23.552 0 0 1 11.264 19.968 28.16 28.16 0 0 1-10.24 20.48zM97.28 120.32A97.28 97.28 0 0 0 60.928 128v51.2a51.2 51.2 0 0 1 32.768-10.752q39.936 0 39.936 60.416V384h55.296v-157.696a117.248 117.248 0 0 0-23.552-78.848A84.992 84.992 0 0 0 97.28 120.32zM862.208-12.8a53.76 53.76 0 0 0-53.76-53.76H215.552a53.76 53.76 0 0 0-53.76 53.76v53.76h700.416z m102.4 137.728h-57.344l-110.08 167.936a192.512 192.512 0 0 0-12.288 20.992 409.6 409.6 0 0 0 0-41.472v-147.456h-51.2V384H793.6l105.984-163.328 12.8-20.48a240.128 240.128 0 0 0 0 35.84V384h51.2z"  horiz-adv-x="1024" />

    
    <glyph glyph-name="GIF" unicode="&#59012;" d="M184.32 199.68v-204.8h655.36v204.8h81.92v-204.8a81.92 81.92 0 0 0-81.92-81.92H184.32a81.92 81.92 0 0 0-81.92 81.92v204.8h81.92zM921.6 650.24v-122.88h-81.92V650.24h-122.88a40.96 40.96 0 0 0-40.96 40.96V814.08H184.32v-286.72H102.4V814.08a81.92 81.92 0 0 0 81.92 81.92h491.52l245.76-245.76zM921.6 568.32a81.92 81.92 0 0 0 81.92-81.92v-245.76a81.92 81.92 0 0 0-81.92-81.92H102.4a81.92 81.92 0 0 0-81.92 81.92v245.76a81.92 81.92 0 0 0 81.92 81.92h819.2zM317.44 527.36c-29.4912 0-54.272-5.12-74.05568-15.36a137.6256 137.6256 0 0 1-59.31008-57.67168c-13.39392-25.14944-20.23424-53.69856-20.23424-85.8112 0-29.696 6.144-57.22112 18.18624-82.49344 11.50976-24.576 30.5152-45.056 54.272-58.24512 24.04352-13.5168 52.224-20.35712 84.66432-20.35712a208.65024 208.65024 0 0 1 75.44832 14.45888c24.7808 9.66656 43.8272 20.80768 56.89344 33.42336V378.6752h-134.7584v-52.10112h71.59808v-39.3216c-10.36288-7.90528-21.7088-14.1312-33.91488-18.67776-12.4928-5.03808-25.8048-7.53664-39.3216-7.65952-26.54208 0-47.9232 9.216-64.22528 27.56608-16.26112 18.30912-24.45312 45.8752-24.45312 82.57536 0 33.9968 7.9872 59.76064 24.1664 77.0048 15.9744 17.32608 37.72416 25.96864 65.04448 25.96864 17.98144 0 33.01376-4.42368 45.056-13.18912 11.96032-8.76544 20.15232-20.72576 24.576-35.96288l62.01344 11.63264c-6.144 28.42624-20.02944 50.70848-41.65632 66.7648C385.8432 519.29088 355.9424 527.36 317.44 527.36z m254.07488-5.3248h-62.464v-309.49376h62.464V521.99424z m272.13824 0h-212.1728v-309.49376h62.464v131.52256h129.2288v52.34688h-129.2288v73.27744h149.7088V521.99424z"  horiz-adv-x="1024" />

    
    <glyph glyph-name="7z" unicode="&#58901;" d="M922.031528 432.037459h-0.10988V674.612143c2.727017 9.329796-0.10988 19.478695-7.411893 25.961604L709.314188 885.42157c-10.478539 9.449664-26.670829 8.550648-36.130483-1.93788-3.526143-3.99563-5.803652-8.890276-6.373029-14.24442h-0.459498v-232.685501h204.536289v-204.526299h-716.016857V843.817075h434.794444c14.024661 0 25.522085 11.387545 25.522085 25.522085 0 14.144529-11.387545 25.532074-25.522085 25.532075H103.806462v-462.833776H1.478383v-434.694553h102.328079c2.836897-69.743718 60.274075-125.342906 130.577181-125.342906h687.657874V-2.667083h102.31809V432.037459H922.031528zM717.515218 687.717809V809.294834l134.912439-121.577025H717.515218zM523.637272 99.51116l150.495395 220.069299h-137.949118v63.990011H749.380365v-63.990011L595.7484 99.51116h158.336819v-59.315124h-230.447947v59.315124zM287.235836 378.885594h191.250819v-54.630248c-53.301701-90.530982-83.089121-185.217418-89.352271-284.069299h-58.006555c7.302013 93.647573 35.521149 185.73685 84.657406 276.257842H287.235836v62.441705z m583.761511-455.731544H240.197284c-43.302638 0-79.073513 32.364601-84.547526 74.178867h715.347589v-74.178867z"  horiz-adv-x="1025" />

    
    <glyph glyph-name="ppt" unicode="&#58936;" d="M836 518.4c-4 82.4-69.6 148.8-152 152v-156.8c50.4 4.8 101.6 4.8 152 4.8zM983.2 31.2H602.4V128h279.2v45.6H602.4v60.8h279.2V280H602.4v71.2c45.6-18.4 96.8-12 136.8 15.2 43.2 28 69.6 75.2 71.2 127.2h-152v152c-18.4-5.6-37.6-9.6-56.8-10.4V751.2h381.6v-720zM344 345.6c-28-8.8-56.8-12-86.4-10.4v-136.8c-20 0-45.6 4.8-71.2 4.8V584c60.8-4.8 136.8 25.6 192.8-20 51.2-65.6 35.2-177.6-35.2-218.4z m674.4 395.2c4 21.6-11.2 42.4-32.8 46.4-4 0.8-8 0.8-12.8 0H602.4V894.4H536C359.2 864 180.8 833.6 3.2 797.6v-827.2c177.6-30.4 350.4-60.8 528-96.8h71.2v116.8h346.4c20.8-1.6 41.6 1.6 60.8 10.4 8 26.4 11.2 53.6 10.4 81.6l-1.6 658.4zM257.6 518.4v-116.8c25.6 4.8 50.4 0 66.4 25.6 10.4 24 10.4 52 0 76-16 20.8-46.4 15.2-66.4 15.2z"  horiz-adv-x="1024" />

    
    <glyph glyph-name="shipin" unicode="&#58890;" d="M784 784H240c-88 0-160-72-160-160v-480c0-88 72-160 160-160h544c88 0 160 72 160 160V624c0 88-72 160-160 160zM144 176V592h736v-416H144z m96 544h544c41.6 0 76.8-27.2 89.6-64H150.4c12.8 36.8 48 64 89.6 64z m544-672H240c-41.6 0-76.8 27.2-89.6 64h724.8c-14.4-36.8-49.6-64-91.2-64zM628.8 438.4l-131.2 78.4c-9.6 6.4-20.8 9.6-33.6 9.6-35.2 0-64-28.8-64-64V304c0-11.2 3.2-22.4 9.6-33.6 8-14.4 22.4-25.6 40-28.8 4.8-1.6 11.2-1.6 16-1.6 11.2 0 22.4 3.2 33.6 9.6L630.4 328c9.6 4.8 16 12.8 22.4 22.4 16 30.4 6.4 70.4-24 88zM595.2 384L464 305.6V464l131.2-80z"  horiz-adv-x="1024" />

    
    <glyph glyph-name="renzheng" unicode="&#59307;" d="M894.9 724.1c-2.4 0.3-237.1 31.1-364.5 102.1-11.1 6.2-24.5 6.8-36.2 1.7-126.1-55.3-368.3-103.7-370.7-104.2-19.1-3.8-32.8-20.5-32.8-39.9V387c0-143 78.3-273.9 204.3-341.5l196.3-105.3c6-3.2 12.6-4.8 19.2-4.8s13.2 1.6 19.2 4.8L726 45.5C852 113.1 930.3 243.9 930.3 387V683.7c0.1 20.4-15.1 37.7-35.4 40.4zM849 386.8c0-113-61.8-216.3-161.4-269.7l-177-94.9-177 94.9C234 170.5 172.1 273.9 172.1 386.8V650.5c68.7 14.7 229 51.5 336.5 95 110.7-55.6 269.9-85.7 340.4-97v-261.7zM378.4 450.6c-17.1 14.7-42.8 12.7-57.4-4.4-14.7-17.1-12.7-42.8 4.4-57.4l131.2-112.7c7.7-6.6 17.1-9.8 26.5-9.8 10.8 0 21.5 4.2 29.5 12.6l186.1 194.7c15.5 16.3 15 42-1.3 57.6-16.3 15.5-42 15-57.6-1.3L480.3 363.1l-101.9 87.5z"  horiz-adv-x="1024" />

    
    <glyph glyph-name="ziyuan375" unicode="&#58910;" d="M289.294337-31.143746a191.163659 191.163659 0 0 0-135.088985 326.252645L331.350342 472.891101l45.242066-44.604853-177.782203-177.782203A127.442439 127.442439 0 0 1 382.327318 67.624144l177.782203 177.782203 45.242066-45.242066-180.968264-175.233354a191.163659 191.163659 0 0 0-135.088986-56.074673zM695.835719 296.383323l-45.242066 45.242066L828.375856 513.672682a127.442439 127.442439 0 0 1 0 180.331052 131.265713 131.265713 0 0 1-180.331052 0l-177.782203-172.047293-44.604854 45.242066 175.233354 175.233354a196.261357 196.261357 0 0 0 270.177972 0 191.163659 191.163659 0 0 0 0-270.815184zM724.510268 126.693715l45.050902 45.050902 135.088986-135.152707-44.987182-45.050902zM734.705663 289.373989h191.163659v-63.72122h-191.163659zM606.626011 161.294337h63.72122v-191.163659h-63.72122zM119.732172 731.40809l45.050902 45.050902 135.152707-135.152707L254.884879 596.255383zM353.015557 797.869322h63.72122v-191.163659h-63.72122zM97.493466 542.347231h191.163659v-63.72122h-191.163659z"  horiz-adv-x="1024" />

    
    <glyph glyph-name="kehuduan1" unicode="&#59013;" d="M890.496 782.464H137.472a62.08 62.08 0 0 1-62.016-62.016v-468.864a62.016 62.016 0 0 1 62.016-61.952h338.112v-121.6H294.016a38.4 38.4 0 1 1 0-76.8h440a38.4 38.4 0 0 1 0 76.8H552.384v121.6h338.112a62.016 62.016 0 0 1 62.016 61.952V720.448a62.08 62.08 0 0 1-62.016 62.016z m-14.72-516.032H152.32V705.664h723.2zM248 423.68A38.4 38.4 0 0 1 275.2 435.2l121.984 121.6a38.4 38.4 0 0 1-54.336 54.336L220.864 489.216a38.4 38.4 0 0 1 27.136-65.536z m112.832 7.232a38.4 38.4 0 0 1 54.336 0l49.984 49.984a38.4 38.4 0 0 1-54.336 54.336l-49.984-49.984a38.4 38.4 0 0 1 0-54.336z"  horiz-adv-x="1024" />

    
    <glyph glyph-name="tubiaozhengli-259" unicode="&#58979;" d="M640.426667 169.386667m-85.333334 0a85.333333 85.333333 0 1 1 170.666667 0 85.333333 85.333333 0 1 1-170.666667 0ZM640.426667 596.053333m-85.333334 0a85.333333 85.333333 0 1 1 170.666667 0 85.333333 85.333333 0 1 1-170.666667 0ZM384.426667 382.72m-85.333334 0a85.333333 85.333333 0 1 1 170.666667 0 85.333333 85.333333 0 1 1-170.666667 0ZM640 298.666667a128 128 0 0 1-120.32-85.333334H170.666667v-85.333333h349.013333a128 128 0 0 1 240.213333 0H853.333333v85.333333h-93.013333A128 128 0 0 1 640 298.666667z m0-170.666667a42.666667 42.666667 0 1 0 42.666667 42.666667 42.666667 42.666667 0 0 0-42.666667-42.666667zM384 512a128 128 0 0 1-120.32-85.333333H170.666667v-85.333334h93.44a128 128 0 0 1 240.64 0H853.333333v85.333334h-349.866666A128 128 0 0 1 384 512z m0-170.666667a42.666667 42.666667 0 1 0 42.666667 42.666667 42.666667 42.666667 0 0 0-42.666667-42.666667zM760.32 640a128 128 0 0 1-240.213333 0H170.666667v-85.333333h349.013333a128 128 0 0 1 240.213333 0H853.333333V640zM640 554.666667a42.666667 42.666667 0 1 0 42.666667 42.666666 42.666667 42.666667 0 0 0-42.666667-42.666666z"  horiz-adv-x="1024" />

    
    <glyph glyph-name="jurassic_admin" unicode="&#59030;" d="M960 173.29999999999995L828.1 176l-43.3 124.2L741.5 176l-131.9-2.7 105.1-79.4L676.5-32l108.3 75.1L893.1-32l-38.2 125.9zM677.3 263.6c10.1 12.2 8.3 30.2-3.9 40.2-38 31.2-82 53.4-128.5 67.5 71.5 38.7 120.8 113.4 120.8 200.1 0 126-102.8 228.5-229.2 228.5S207.3 697.5 207.3 571.5c0-86.1 48.6-160.4 119.4-199.4C174.7 325.29999999999995 64 183.89999999999998 64 17.299999999999955c0-15.8 12.8-28.6 28.7-28.6s28.7 12.8 28.7 28.6c0 173.3 141.4 314.2 315.2 314.2 73 0 144.2-25.5 200.5-71.8 12.1-10 30.1-8.2 40.2 3.9zM264.6 571.5c0 94.5 77.1 171.4 171.9 171.4S608.4 666 608.4 571.5s-77.1-171.4-171.9-171.4S264.6 477 264.6 571.5z"  horiz-adv-x="1024" />

    
    <glyph glyph-name="-jiaoseguanli" unicode="&#59014;" d="M703.89 300a354.72 354.72 0 0 1-49.43 25.65q-3.78 1.59-7.59 3.1a251.36 251.36 0 0 1 118.36 213.4c0 138.94-112.63 251.56-251.56 251.56S262.11 681.09 262.11 542.15a251.38 251.38 0 0 1 120-214.42c-1.71-0.69-3.42-1.37-5.12-2.09a356.2 356.2 0 0 1-217.7-328.43 32 32 0 0 1 64 0c0 161.26 131.2 292.45 292.45 292.45a290.76 290.76 0 0 0 122.54-26.94A192.13 192.13 0 0 0 703.89 300zM381 409.53a187.55 187.55 0 1 0 132.63-54.94A186.33 186.33 0 0 0 381 409.53z m591.48-282.88H574.21a32 32 0 0 0 0 64H818l-46.84 46.84a32 32 0 0 0 45.26 45.25zM711.7-102.46a31.9 31.9 0 0 0-22.63 9.37L533 63h398.25a32 32 0 0 0 0-64H687.49l46.84-46.84a32 32 0 0 0-22.63-54.62z"  horiz-adv-x="1024" />

    
    <glyph glyph-name="tupian" unicode="&#58954;" d="M432.888596 240.596222 359.342127 342.35367C349.598306 355.835029 333.800712 355.83489 324.05699 342.35367L188.471613 154.76041C178.727792 141.27905 184.541661 130.350499 201.457031 130.350499L447.704979 130.350499 822.658642 130.350499C839.583509 130.350499 845.267916 141.25515 835.42945 154.706718L620.563382 448.480695C610.659782 462.021318 594.773609 461.932263 584.935143 448.480695L432.888596 240.596222 432.888596 240.596222ZM273.271058 548.126148a58.4 58.4 0 1 0 119.364471 0 58.4 58.4 0 1 0-119.364471 0ZM109.081528 697.331737 914.918473 697.331737C906.5326 697.331737 899.934531 704.008842 899.934531 712.19925L899.934531 55.80075C899.934531 64.008349 906.565377 70.668263 914.918473 70.668263L109.081528 70.668263C117.4674 70.668263 124.065469 63.991158 124.065469 55.80075L124.065469 712.19925C124.065469 703.991651 117.434624 697.331737 109.081528 697.331737ZM64.383234 55.80075C64.383234 31.187602 84.345684 10.986028 109.081528 10.986028L914.918473 10.986028C939.585548 10.986028 959.616766 31.105061 959.616766 55.80075L959.616766 712.19925C959.616766 736.812398 939.654316 757.013972 914.918473 757.013972L109.081528 757.013972C84.414452 757.013972 64.383234 736.894939 64.383234 712.19925L64.383234 55.80075Z"  horiz-adv-x="1024" />

    
    <glyph glyph-name="quanbu1" unicode="&#58933;" d="M512.002662 231.6288c-5.8368 0-11.5712 1.6384-16.7936 4.8128L15.260262 536.1664C5.737062 542.0032 0.002662 552.5504 0.002662 563.8144s5.7344 21.8112 15.2576 27.648L495.209062 891.1872c10.24 6.4512 23.2448 6.4512 33.4848 0L1008.642662 591.4624c9.5232-5.9392 15.2576-16.384 15.2576-27.648s-5.7344-21.8112-15.2576-27.648L528.796262 236.4416c-5.2224-3.1744-10.9568-4.8128-16.7936-4.8128zM93.084262 563.8144L512.002662 302.2848l418.9184 261.5296L512.002662 825.344 93.084262 563.8144zM512.002662 51.8144c-5.8368 0-11.5712 1.6384-16.7936 4.8128L15.260262 356.2496C0.207462 365.6704-4.502938 385.6384 4.713062 400.9984c9.216 15.2576 28.9792 20.0704 44.032 10.6496L512.002662 122.4704 975.260262 411.648c15.0528 9.4208 34.7136 4.608 44.032-10.6496 9.216-15.2576 4.5056-35.328-10.5472-44.7488L528.796262 56.6272c-5.2224-3.1744-10.9568-4.8128-16.7936-4.8128zM512.002662-128c-5.8368 0-11.5712 1.6384-16.7936 4.8128L15.260262 176.5376C0.207462 185.9584-4.502938 205.9264 4.713062 221.2864c9.216 15.2576 28.9792 20.0704 44.032 10.6496L512.002662-57.344l463.2576 289.1776c15.0528 9.4208 34.7136 4.608 44.032-10.6496 9.216-15.2576 4.5056-35.328-10.5472-44.7488L528.796262-123.1872c-5.2224-3.1744-10.9568-4.8128-16.7936-4.8128z"  horiz-adv-x="1024" />

    
    <glyph glyph-name="shouye3" unicode="&#58923;" d="M951.168 369.846a30 30 0 0 0-42.427 0c-0.044 0.045-0.081 0.1-0.125 0.14l-0.007-0.007-382.545 382.54a20 20 0 0 1-28.284 0l-382.545-382.54a30 30 0 1 0-42.426 42.426L476.567 816.163a50 50 0 0 0 70.71 0l403.758-403.758-0.006-0.006c0.045-0.045 0.094-0.081 0.139-0.126a30 30 0 0 0 0-42.427z m-72.246 221.373a30 30 0 0 0-30 30v100h-100a30 30 0 0 0 0 60h130a30 30 0 0 0 30-30v-130a30 30 0 0 0-30-30z m-698-237.25a30 30 0 0 0 29.994-29.75h0.006v-307a20 20 0 0 1 20-20h137v235a50 50 0 0 0 50 50h188a50 50 0 0 0 50-50v-235h137a20 20 0 0 1 20 20v302.7a30 30 0 1 0 59.656 4.554c0-0.084 0-0.166-0.006-0.25h0.35v-337.004a50 50 0 0 0-50-50h-227V202.635a20 20 0 0 1-20 20h-128a20 20 0 0 1-20-20v-265.416h-227a50 50 0 0 0-50 50v337h0.006a30 30 0 0 0 29.994 29.75z"  horiz-adv-x="1024" />

    
    <glyph glyph-name="biaoge3" unicode="&#59132;" d="M56.888889 839.111111v-910.222222h910.222222V839.111111H56.888889z m56.888889-227.555555h227.555555v-170.666667H113.777778V611.555556z m512-170.666667H398.222222V611.555556h227.555556v-170.666667z m0-56.888889v-170.666667H398.222222V384h227.555556zM113.777778 384h227.555555v-170.666667H113.777778V384z m0-398.222222v170.666666h227.555555v-170.666666H113.777778z m284.444444 0v170.666666h227.555556v-170.666666H398.222222z m512 0h-227.555555v170.666666h227.555555v-170.666666z m0 227.555555h-227.555555V384h227.555555v-170.666667z m0 227.555556h-227.555555V611.555556h227.555555v-170.666667zM113.777778 668.444444V782.222222h796.444444v-113.777778H113.777778z"  horiz-adv-x="1024" />

    
    <glyph glyph-name="pifu" unicode="&#58940;" d="M617.813333 730.794667l-2.730666-31.232c-3.925333-45.056-42.496-80.213333-87.722667-80.213334-45.909333 0-83.626667 34.474667-87.722667 80.384l-2.730666 31.061334H116.736v-326.144h118.784v-317.781334c0-56.490667 45.909333-102.4 102.4-102.4h379.050667c56.490667 0 102.4 45.909333 102.4 102.4V404.650667h118.784V730.794667H617.813333z m252.074667-257.877334h-118.784v-386.048c0-18.773333-15.36-34.133333-34.133333-34.133333H337.92c-18.773333 0-34.133333 15.36-34.133333 34.133333V472.917333h-118.784V662.528h192.682666c19.285333-65.365333 79.018667-111.445333 149.845334-111.445333s130.56 46.08 149.845333 111.445333h192.682667v-189.610667z"  horiz-adv-x="1024" />

    
    <glyph glyph-name="quanxian" unicode="&#58880;" d="M513.152 896L115.968 769.856a35.84 35.84 0 0 1-24.96-34.112l2.048-496.128 0.448-5.696a347.072 347.072 0 0 1 98.24-166.208c62.464-61.568 215.68-142.08 281.088-176.448 10.24-5.376 17.92-9.408 22.336-11.84l7.424-4.032c5.12-2.752 11.2-2.88 16.32-0.192l10.88 5.504c38.4 18.752 232.576 115.84 304.768 187.008a345.856 345.856 0 0 1 98.24 166.208l2.304 501.632a35.84 35.84 0 0 1-24.96 34.304L513.152 896z m355.2-652.8a295.68 295.68 0 0 0-79.808-130.688c-57.216-56.448-212.352-137.088-268.8-165.504a17.408 17.408 0 0 0-16 0c-57.536 30.144-210.112 110.336-265.792 165.248a294.4 294.4 0 0 0-79.808 130.624L156.16 703.872c0 6.912 4.416 13.056 11.008 15.168L502.4 825.6a35.392 35.392 0 0 0 21.312 0l335.232-106.56a15.936 15.936 0 0 0 11.072-15.168l-1.92-460.736h0.256zM519.232 656.64a146.432 146.432 0 0 0 103.552-42.688 142.976 142.976 0 0 0-0.64-204.288 146.048 146.048 0 0 0-67.2-37.12l-0.384-60.48h60.608a36.288 36.288 0 0 0 36.544-36.16 36.736 36.736 0 0 0-36.8-36.16h-60.544l-0.256-100.864a36.672 36.672 0 0 0-36.8-36.16 36.288 36.288 0 0 0-36.544 36.16l0.896 233.92a145.664 145.664 0 0 0-67.008 37.312 143.104 143.104 0 0 0 0.512 204.608 146.816 146.816 0 0 0 103.872 42.112l0.192-0.256zM607.36 513.344a83.392 83.392 0 0 1-25.088 60.16 87.296 87.296 0 0 1-122.048 0.256 83.2 83.2 0 0 1-25.6-59.904c0-22.592 8.96-44.288 25.152-60.16 16.192-16.064 38.08-25.024 60.864-24.96a87.552 87.552 0 0 1 86.656 84.864l0.064-0.256z"  horiz-adv-x="1024" />

    


  </font>
</defs>
</svg>
